<svg id="Capa_1" data-name="Capa 1" xmlns="http://www.w3.org/2000/svg" viewBox="0 0 464.83 512"><defs><style>.cls-1{fill:#f86e31;stroke:#000;stroke-miterlimit:10;}</style></defs><title>icon-shield</title><rect class="cls-1" x="131.68" y="190.26" width="201.89" height="134.04"/><path d="M256.28,232.25A17.06,17.06,0,0,0,249,264.74v20.75a7.29,7.29,0,0,0,14.58,0V264.74a17.06,17.06,0,0,0-7.29-32.49Z" transform="translate(-23.58 0)"/><path d="M438.14,111.15C406.77,98.74,381.87,75.87,368,46.78a23,23,0,0,0-20.73-13H164.7a23,23,0,0,0-20.73,13c-13.84,29.09-38.74,52-70.11,64.37a22.83,22.83,0,0,0-14.48,21.37v44.41c0,58.22,17,115.73,49.1,166.32C140.91,394.33,187.9,437,244.37,466.7l.92.49a23,23,0,0,0,21.42,0l.92-.49C324.1,437,371.1,394.33,403.53,343.25c32.12-50.59,49.09-108.1,49.09-166.32V132.52A22.83,22.83,0,0,0,438.14,111.15Zm-.09,65.78c0,55.45-16.19,110.26-46.83,158.51-31.06,48.93-76.15,89.86-130.37,118.36l-.92.49a8.47,8.47,0,0,1-7.86,0l-.92-.48c-54.22-28.5-99.3-69.44-130.37-118.37C90.14,287.19,74,232.38,74,176.93V132.52a8.35,8.35,0,0,1,5.27-7.82C114,110.93,141.7,85.47,157.13,53a8.38,8.38,0,0,1,7.57-4.72H347.3A8.38,8.38,0,0,1,354.87,53c15.43,32.43,43.1,57.89,77.91,71.66a8.35,8.35,0,0,1,5.27,7.82Z" transform="translate(-23.58 0)"/><path d="M474.67,246.08a7.28,7.28,0,0,0-8.71,5.5c-22.19,98.18-89.78,183.32-185.44,233.6l-22.23,11.68a4.89,4.89,0,0,1-4.58,0l-22.23-11.68C135.67,434.82,68.05,349.53,46,251.18a7.28,7.28,0,1,0-14.21,3.19c23,102.53,93.36,191.36,193,243.71l22.23,11.68a19.48,19.48,0,0,0,18.14,0l22.23-11.68C386.74,445.81,457,357.14,480.17,254.79A7.28,7.28,0,0,0,474.67,246.08Z" transform="translate(-23.58 0)"/><path d="M471.13,83.38C432.22,79.27,401.62,52,396.73,17A19.69,19.69,0,0,0,377.39,0H134.61a19.67,19.67,0,0,0-19.33,17c-4.9,35-35.49,62.31-74.4,66.42a19.37,19.37,0,0,0-17.3,19.37V181a336,336,0,0,0,1.75,34.17,7.29,7.29,0,0,0,7.24,6.54,6.45,6.45,0,0,0,.76,0,7.29,7.29,0,0,0,6.5-8A321.15,321.15,0,0,1,38.16,181V102.75a4.88,4.88,0,0,1,4.25-4.88C88,93.06,123.88,60.62,129.71,19a5,5,0,0,1,4.9-4.41H377.39a5,5,0,0,1,4.9,4.41c5.83,41.64,41.73,74.08,87.3,78.89a4.88,4.88,0,0,1,4.25,4.88V181a320.39,320.39,0,0,1-1.64,32.34,7.29,7.29,0,0,0,14.5,1.48A335.06,335.06,0,0,0,488.42,181V102.75A19.37,19.37,0,0,0,471.13,83.38Z" transform="translate(-23.58 0)"/><path d="M339.46,181.86h-12V147.08a71.2,71.2,0,0,0-142.4,0v34.78h-12A23.2,23.2,0,0,0,149.93,205V309.37a23.19,23.19,0,0,0,23.17,23.17H339.46a23.19,23.19,0,0,0,23.17-23.17V205A23.2,23.2,0,0,0,339.46,181.86ZM199.65,147.08a56.63,56.63,0,0,1,113.26,0v34.79H199.65ZM348.06,309.37a8.61,8.61,0,0,1-8.6,8.6H173.1a8.61,8.61,0,0,1-8.6-8.6V205a8.61,8.61,0,0,1,8.6-8.6H339.46a8.61,8.61,0,0,1,8.6,8.6Z" transform="translate(-23.58 0)"/></svg>