<svg id="Capa_1" enable-background="new 0 0 507.481 507.481" height="512" viewBox="0 0 507.481 507.481" width="512" xmlns="http://www.w3.org/2000/svg"><g><path d="m410.562 486.534-16.908-170.386 113.828-127.905-167.271-36.571-86.47-147.782-86.471 147.781-167.27 36.572 113.828 127.905-16.907 170.386 141.82-62.158v49.216h-30.287v30h90.445v-30h-30.158v-49.216zm-112.772-82.182c18.828-13.639 31.109-35.786 31.109-60.76v-25h34.849l11.897 119.884zm-241.294-197.752 130.026-28.429 67.219-114.879 67.217 114.879 130.027 28.429-72.968 81.991h-49.118v-25c0-41.355-33.645-75-75-75s-75 33.645-75 75v25h-49.436zm75.341 231.875 11.897-119.884h35.166v25c0 24.921 12.229 47.029 30.989 60.674zm77.347-89.884h29.716v-30h-30v-30h30v-30h-29.716c2.496-22.468 21.593-40 44.716-40s42.219 17.532 44.716 40h-29.716v30h30v30h-30v30h29.716c-2.248 20.233-17.956 36.461-37.947 39.49l-13.768-.038c-19.881-3.117-35.478-19.297-37.717-39.452z"/></g></svg>