<svg id="Capa_1" enable-background="new 0 0 503.875 503.875" height="512" viewBox="0 0 503.875 503.875" width="512" xmlns="http://www.w3.org/2000/svg"><g><g><g><path d="m502.555 194.722c-2.717-4.706-8.735-6.32-13.443-3.602l-145.994 84.29c1.808-30.586-9.491-61.193-31.474-83.177s-52.587-33.293-83.176-31.474l84.288-145.994c2.718-4.707 1.105-10.725-3.602-13.443-4.709-2.718-10.726-1.104-13.443 3.602l-88.546 153.365c-4.831-2.899-10.705-3.942-16.521-2.796-7.961 1.567-14.571 6.936-17.682 14.362l-15.784 37.666-89.095 89.095c-38.371 38.371-38.371 100.806 0 139.177 9.411 9.411 21.813 16.5 30.223 20.412v27.987h-88.465c-5.434 0-9.841 4.407-9.841 9.841s4.407 9.841 9.841 9.841h255.659c5.434 0 9.841-4.407 9.841-9.841s-4.407-9.841-9.841-9.841h-88.464v-27.832c11.286-4.884 21.433-11.779 30.223-20.569l89.095-89.095 37.667-15.783c7.426-3.112 12.796-9.723 14.361-17.685 1.145-5.817.102-11.689-2.796-16.52l153.365-88.546c4.709-2.715 6.322-8.733 3.604-13.44zm-204.83 11.429c17.861 17.86 27.091 42.678 25.772 67.527l-93.3-93.3c24.85-1.319 49.668 7.912 67.528 25.773zm-179.735 278.041v-108.147c0-10.853 8.83-19.682 19.682-19.682s19.682 8.83 19.682 19.682v108.148zm75.352-62.317c-4.921 4.921-10.383 9.082-16.305 12.486v-58.316c0-21.706-17.659-39.365-39.365-39.365s-39.365 17.659-39.365 39.365v57.961c-5.607-3.27-11.63-7.456-16.305-12.131-14.801-14.801-22.952-34.571-22.952-55.67s8.151-40.87 22.952-55.67l41.751-41.751 111.341 111.341zm135.73-112.445c-.144.727-.688 2.507-2.656 3.332l-33.361 13.979-26.647-26.647c-3.844-3.842-10.073-3.842-13.918 0-3.843 3.843-3.843 10.074 0 13.918l24.358 24.358-27.836 27.836-111.341-111.341 27.836-27.836 24.353 24.353c1.922 1.921 4.44 2.882 6.959 2.882 2.518 0 5.037-.961 6.959-2.883 3.843-3.843 3.843-10.074 0-13.918l-26.642-26.642 13.98-33.362c.825-1.968 2.603-2.513 3.329-2.656.589-.115 2.067-.277 3.071.728l130.827 130.827c1.006 1.006.844 2.483.729 3.072z"/><path d="m370.818 142.899c2.519 0 5.037-.961 6.959-2.882l47.998-47.998c3.843-3.843 3.843-10.074 0-13.918-3.844-3.842-10.073-3.842-13.918 0l-47.998 47.998c-3.843 3.843-3.843 10.074 0 13.918 1.922 1.922 4.439 2.882 6.959 2.882z"/><path d="m235.692 269.434c-3.481-4.177-9.685-4.735-13.858-1.258-4.175 3.48-4.737 9.689-1.258 13.863 1.948 2.336 4.745 3.542 7.566 3.542 2.222 0 4.455-.748 6.294-2.28 4.176-3.48 4.74-9.686 1.261-13.86z"/></g></g></g></svg>