<?xml version="1.0" encoding="utf-8"?>
<!-- Generator: Adobe Illustrator 24.0.2, SVG Export Plug-In . SVG Version: 6.00 Build 0)  -->
<svg version="1.1" xmlns="http://www.w3.org/2000/svg" xmlns:xlink="http://www.w3.org/1999/xlink" x="0px" y="0px"
	 viewBox="0 0 1305.2 374.3" style="enable-background:new 0 0 1305.2 374.3;" xml:space="preserve">
<style type="text/css">
	.st0{fill:#010202;}
	.st1{fill:#EE761B;}
	.st2{fill:#FFFFFF;}
</style>
<g id="Camada_2">
</g>
<g id="Camada_1">
	<circle class="st0" cx="187.2" cy="187.2" r="187.2"/>
</g>
<g id="Camada_3">
	<circle class="st1" cx="184.5" cy="189.1" r="116.6"/>
</g>
<g id="Camada_4">
	<path class="st2" d="M208.7,58c-8.4-1.5-16.8-2.2-25.2-2.1c0,0,0,0,0,0c-3.2,0-6.4,0.2-9.6,0.4c-1,0.1-2,0.2-3,0.3
		c-31.5,3.3-60.9,17.5-82.9,40.4c-0.4,0.2-0.7,0.5-1,0.8c-38.5,40.7-47.6,101.8-22.6,152c25.1,50.2,79.3,79.7,135.1,73.4
		c0.4,0,0.7-0.2,1.1-0.3c32-3.9,61.8-19.3,83.6-43.4c0.1-0.2,0.3-0.3,0.4-0.5c5.8-6.5,11.1-13.6,15.7-21.3c0.2-0.3,0.3-0.7,0.4-1.1
		c15-26.1,20.7-56.6,16.4-86.3c0.1-0.5,0.1-1.1,0-1.6C308,112.8,264.5,68.2,208.7,58z M272.8,275.6c-0.1,0.1-0.1,0.2-0.2,0.2
		c-28.2,28.8-69.5,42.6-110.2,35.1c-50.7-9.3-90.5-49.6-99.2-100.4c-0.1-0.4-0.2-0.8-0.3-1.1c-4.4-27.4,0.7-55.8,14.4-80.1
		c0.2-0.2,0.3-0.4,0.5-0.7c19.4-33.9,53.4-56,90.8-60.9c0.2,0,0.4,0,0.6,0c51.7-6.5,102.1,20.5,125.4,67.2
		C317.7,181.7,309,238.2,272.8,275.6z"/>
	<path class="st2" d="M303.7,40.4L1.2,171.1c-0.2,2.7-0.4,5.4-0.5,8.2L310,45.6C307.9,43.8,305.8,42.1,303.7,40.4z"/>
	<path class="st2" d="M330.1,66.2L1.9,208c0.3,2.5,0.6,5,1,7.5l332-143.5C333.3,70.1,331.7,68.1,330.1,66.2z"/>
	<path class="st2" d="M350,94.8L9.1,242.1c0.7,2.3,1.5,4.7,2.3,7l342-147.8C352.4,99.1,351.2,96.9,350,94.8z"/>
	<path class="st2" d="M364,126L22.4,273.6c1.2,2.2,2.3,4.3,3.6,6.4l340.2-147C365.5,130.7,364.8,128.3,364,126z"/>
	<path class="st2" d="M372,159.7L41.5,302.6c1.6,2,3.2,3.9,4.9,5.9L373,167.3C372.7,164.8,372.4,162.3,372,159.7z"/>
	<path class="st2" d="M67,328.8c2.1,1.8,4.2,3.5,6.4,5.2L373,204.5c0.3-2.7,0.5-5.5,0.6-8.2L67,328.8z"/>
</g>
<g id="Camada_5">
	<g>
		<g>
			<path class="st0" d="M517,260.9c13.9,4.9,20.9,16.3,20.9,34v37.2c0,28.2-13.3,42.4-39.8,42.4h-82.5V166.9h79.9
				c26.5,0,39.8,14.1,39.8,42.4v18.9C535.3,245.3,529.2,256.2,517,260.9z M484.3,197.4h-23.8v55.5h23.8c1.7,0,3.2-0.6,4.3-1.9
				c1.2-1.3,1.8-2.8,1.8-4.5v-42.7c0-1.7-0.6-3.2-1.8-4.5C487.4,198,486,197.4,484.3,197.4z M493,337.3v-46.5c0-1.7-0.6-3.2-1.8-4.5
				c-1.2-1.3-2.6-1.9-4.3-1.9h-26.3v59.4h26.3c1.7,0,3.2-0.6,4.3-1.9C492.4,340.5,493,339,493,337.3z"/>
			<path class="st0" d="M651.2,163.7c26.5,0,39.8,14.1,39.8,42.4v168.5H646v-69.6h-32.4v69.6h-44.9V206c0-28.2,13.3-42.4,39.8-42.4
				H651.2z M613.6,270.2H646v-69.6c0-1.7-0.6-3.2-1.8-4.5c-1.2-1.3-2.6-1.9-4.3-1.9h-20.2c-1.7,0-3.2,0.6-4.3,1.9
				c-1.2,1.3-1.8,2.8-1.8,4.5V270.2z"/>
			<path class="st0" d="M843.4,374.5h-44.9V202.2c0-1.7-0.6-3.2-1.8-4.5c-1.2-1.3-2.6-1.9-4.3-1.9h-17.3c-1.7,0-3.2,0.6-4.3,1.9
				c-1.2,1.3-1.8,2.8-1.8,4.5v172.3H724V206c0-28.2,13.3-42.4,39.8-42.4h39.8c26.5,0,39.8,14.1,39.8,42.4V374.5z"/>
			<path class="st0" d="M956.1,166.9c26.5,0,39.8,14.1,39.8,42.4v122.9c0,28.2-13.3,42.4-39.8,42.4h-82.5V166.9H956.1z M950.9,337.3
				V203.8c0-1.7-0.6-3.2-1.8-4.5c-1.2-1.3-2.6-1.9-4.3-1.9h-26.3v146.4h26.3c1.7,0,3.2-0.6,4.3-1.9
				C950.3,340.5,950.9,339,950.9,337.3z"/>
			<path class="st0" d="M1111.7,163.7c26.5,0,39.8,14.1,39.8,42.4v168.5h-44.9v-69.6h-32.4v69.6h-44.9V206
				c0-28.2,13.3-42.4,39.8-42.4H1111.7z M1074.2,270.2h32.4v-69.6c0-1.7-0.6-3.2-1.8-4.5c-1.2-1.3-2.6-1.9-4.3-1.9h-20.2
				c-1.7,0-3.2,0.6-4.3,1.9c-1.2,1.3-1.8,2.8-1.8,4.5V270.2z"/>
			<path class="st0" d="M1300.1,221.4h-42.7v-16.4c0-1.7-0.6-3.2-1.8-4.5c-1.2-1.3-2.6-1.9-4.3-1.9h-17.7c-1.7,0-3.2,0.6-4.3,1.9
				c-1.2,1.3-1.8,2.8-1.8,4.5V242c0,1.7,0.6,3.2,1.8,4.5c1.2,1.3,2.6,1.9,4.3,1.9h28.9c26.5,0.4,39.8,14.6,39.8,42.4v44.6
				c0,28.2-13.3,42.4-39.8,42.4h-37.9c-26.5,0-39.8-14.1-39.8-42.4v-21.5h42.7V337c0,1.7,0.6,3.2,1.8,4.5c1.2,1.3,2.6,1.9,4.3,1.9
				h19.9c1.7,0,3.2-0.6,4.3-1.9c1.2-1.3,1.8-2.8,1.8-4.5v-40.8c0-1.7-0.6-3.2-1.8-4.5c-1.2-1.3-2.6-1.9-4.3-1.9h-28.9
				c-26.5,0-39.8-14.1-39.8-42.4V206c0-28.2,13.3-42.4,39.8-42.4h35.6c26.5,0,39.8,14.1,39.8,42.4V221.4z"/>
		</g>
	</g>
	<g>
		<g>
			<path class="st0" d="M443.5,136.7h-28.1V31.4c0-17.6,8.3-26.5,24.9-26.5h14.8c9.8,0,16.7,3.2,20.8,9.6c3.9-6.4,10.8-9.6,20.8-9.6
				h14.8c16.6,0,24.9,8.8,24.9,26.5v105.2h-28.1V29c0-1.1-0.4-2-1.1-2.8c-0.7-0.8-1.6-1.2-2.7-1.2h-10.8c-1.1,0-2,0.4-2.7,1.2
				C490.4,27,490,28,490,29v107.6H462V29c0-1.1-0.4-2-1.1-2.8c-0.7-0.8-1.6-1.2-2.7-1.2h-10.8c-1.1,0-2,0.4-2.7,1.2
				c-0.7,0.8-1.1,1.7-1.1,2.8V136.7z"/>
			<path class="st0" d="M583.8,113.4h31.1v23.2h-59.1V7h59.1v22.8h-31.1v30.5h29.1v22h-29.1V113.4z"/>
			<path class="st0" d="M659.2,83.6v53.1h-28.1V7H681c16.6,0,24.9,8.8,24.9,26.5v15c0,10.7-3.8,17.5-11.4,20.4
				c6.7,2.4,10,7.9,10,16.4v51.3h-28.1V87.6c0-2.7-1.3-4-3.8-4H659.2z M659.2,26v37.9H674c1.1,0,2-0.4,2.7-1.2
				c0.7-0.8,1.1-1.7,1.1-2.8V30c0-1.1-0.4-2-1.1-2.8c-0.7-0.8-1.6-1.2-2.7-1.2H659.2z"/>
			<path class="st0" d="M772.2,115.4v-20h26.7v16.8c0,17.6-8.3,26.5-24.9,26.5h-25.3c-16.6,0-24.9-8.8-24.9-26.5V31.4
				c0-17.6,8.3-26.5,24.9-26.5H774c16.6,0,24.9,8.8,24.9,26.5v12.2h-26.7V28c0-1.1-0.4-2-1.1-2.8c-0.7-0.8-1.6-1.2-2.7-1.2h-12.6
				c-1.1,0-2,0.4-2.7,1.2C752.3,26,752,27,752,28v87.4c0,1.1,0.4,2,1.1,2.8c0.7,0.8,1.6,1.2,2.7,1.2h12.6c1.1,0,2-0.4,2.7-1.2
				C771.8,117.4,772.2,116.5,772.2,115.4z"/>
			<path class="st0" d="M867.2,5c16.6,0,24.9,8.8,24.9,26.5v105.2H864V93.2h-20.2v43.5h-28.1V31.4C815.7,13.8,824,5,840.6,5H867.2z
				 M843.8,71.5H864V28c0-1.1-0.4-2-1.1-2.8c-0.7-0.8-1.6-1.2-2.7-1.2h-12.6c-1.1,0-2,0.4-2.7,1.2c-0.7,0.8-1.1,1.7-1.1,2.8V71.5z"
				/>
			<path class="st0" d="M964.4,7c16.6,0,24.9,8.8,24.9,26.5v76.8c0,17.6-8.3,26.5-24.9,26.5h-51.5V7H964.4z M961.2,113.4V30
				c0-1.1-0.4-2-1.1-2.8c-0.7-0.8-1.6-1.2-2.7-1.2H941v91.4h16.4c1.1,0,2-0.4,2.7-1.2C960.8,115.4,961.2,114.5,961.2,113.4z"/>
			<path class="st0" d="M1086.5,31.4v80.8c0,17.6-8.3,26.5-24.9,26.5H1035c-16.6,0-24.9-8.8-24.9-26.5V31.4
				c0-17.6,8.3-26.5,24.9-26.5h26.7C1078.2,5,1086.5,13.8,1086.5,31.4z M1058.4,115.4V28c0-1.1-0.4-2-1.1-2.8
				c-0.7-0.8-1.6-1.2-2.7-1.2H1042c-1.1,0-2,0.4-2.7,1.2c-0.7,0.8-1.1,1.7-1.1,2.8v87.4c0,1.1,0.4,2,1.1,2.8
				c0.7,0.8,1.6,1.2,2.7,1.2h12.6c1.1,0,2-0.4,2.7-1.2C1058.1,117.4,1058.4,116.5,1058.4,115.4z"/>
			<path class="st0" d="M1199.1,7c16.6,0,24.9,8.8,24.9,26.5v76.8c0,17.6-8.3,26.5-24.9,26.5h-51.5V7H1199.1z M1195.9,113.4V30
				c0-1.1-0.4-2-1.1-2.8c-0.7-0.8-1.6-1.2-2.7-1.2h-16.4v91.4h16.4c1.1,0,2-0.4,2.7-1.2C1195.5,115.4,1195.9,114.5,1195.9,113.4z"/>
			<path class="st0" d="M1272.9,113.4h31.1v23.2h-59.1V7h59.1v22.8h-31.1v30.5h29.1v22h-29.1V113.4z"/>
		</g>
	</g>
</g>
</svg>
