<svg id="Camada_1" data-name="Camada 1" xmlns="http://www.w3.org/2000/svg" viewBox="0 0 434.97 511"><defs><style>.cls-1{fill:#00aa63;}.cls-2{fill:#fff;}.cls-3{fill:#b4d2d7;}</style></defs><title>icon-shield2</title><g id="surface1"><path class="cls-1" d="M451.1,341.2c-13.7,37.2-34.5,69.6-61.7,96.2-31,30.3-71.6,54.3-120.7,71.5a41,41,0,0,1-5,1.4,38.1,38.1,0,0,1-6.7.7h-.4a35.14,35.14,0,0,1-7.2-.7,39.16,39.16,0,0,1-4.9-1.3c-49.1-17.1-89.8-41.2-120.8-71.5-27.3-26.6-48-58.9-61.7-96.2C37.1,273.6,38.5,199.1,39.6,139.1v-.9c.2-4.9.4-10.1.5-15.9a54.18,54.18,0,0,1,51-53.1C149.7,66,195.1,46.9,233.9,9l.3-.3a32.79,32.79,0,0,1,44.5,0l.3.3c38.8,37.9,84.3,57,143,60.3a54.18,54.18,0,0,1,51,53.1c.1,5.8.2,11,.5,15.9v.4C474.7,198.7,476.1,273.4,451.1,341.2Z" transform="translate(-39.11 0)"/><path class="cls-1" d="M451.1,341.2c-13.7,37.2-34.5,69.6-61.7,96.2-31,30.3-71.6,54.3-120.7,71.5a41,41,0,0,1-5,1.4,38.1,38.1,0,0,1-6.7.7V0a32.77,32.77,0,0,1,21.8,8.7l.3.3c38.8,37.9,84.3,57,143,60.3a54.18,54.18,0,0,1,51,53.1c.1,5.8.2,11,.5,15.9v.4C474.7,198.7,476.1,273.4,451.1,341.2Z" transform="translate(-39.11 0)"/><path class="cls-2" d="M383.9,255.5c0,70.1-56.9,127.1-126.9,127.4h-.4c-70.2,0-127.4-57.1-127.4-127.4s57.1-127.4,127.4-127.4h.4C327,128.4,383.9,185.4,383.9,255.5Z" transform="translate(-39.11 0)"/><path class="cls-2" d="M383.9,255.5c0,70.1-56.9,127.1-126.9,127.4V128.1C327,128.4,383.9,185.4,383.9,255.5Z" transform="translate(-39.11 0)"/><path class="cls-3" d="M314.3,237.2l-57.4,57.4L244.5,307a15,15,0,0,1-21.2,0l-26.6-26.7a15,15,0,0,1,21.2-21.2L234,275.2,293.2,216a15,15,0,1,1,21.1,21.2Z" transform="translate(-39.11 0)"/><path class="cls-3" d="M314.3,237.2l-57.4,57.4V252.2L293.1,216a15,15,0,1,1,21.2,21.2Z" transform="translate(-39.11 0)"/></g></svg>