<svg id="Camada_1" data-name="Camada 1" xmlns="http://www.w3.org/2000/svg" xmlns:xlink="http://www.w3.org/1999/xlink" viewBox="0 0 125.71 120.13"><defs><style>.cls-1{fill:#f28e23;}.cls-2{fill:#fcd2a2;}.cls-3{fill:url(#linear-gradient);}.cls-4{fill:url(#linear-gradient-2);}.cls-5{fill:url(#linear-gradient-3);}.cls-6{fill:url(#linear-gradient-4);}</style><linearGradient id="linear-gradient" x1="3.99" y1="60.06" x2="121.71" y2="60.06" gradientUnits="userSpaceOnUse"><stop offset="0" stop-color="#fecb3e"/><stop offset="1" stop-color="#f49627"/></linearGradient><linearGradient id="linear-gradient-2" x1="27.38" y1="43.08" x2="121.71" y2="43.08" gradientUnits="userSpaceOnUse"><stop offset="0" stop-color="#fff" stop-opacity="0.3"/><stop offset="1" stop-color="#fff" stop-opacity="0"/></linearGradient><linearGradient id="linear-gradient-3" x1="112.8" y1="28.28" x2="48.33" y2="99.15" xlink:href="#linear-gradient-2"/><linearGradient id="linear-gradient-4" x1="81.01" y1="17.59" x2="39.22" y2="63.53" xlink:href="#linear-gradient-2"/></defs><title>icon-star</title><path class="cls-1" d="M98.11,120.13a8.47,8.47,0,0,1-4.23-1.27L66,102.63a7.53,7.53,0,0,0-6.34,0L31.83,118.86a8.51,8.51,0,0,1-4.24,1.27A5.66,5.66,0,0,1,23.11,118c-.9-1.12-1.82-3.12-1.12-6.33L28.81,80.2a7.54,7.54,0,0,0-2-6l-24-21.48C-.61,49.63-.11,46.62.27,45.47S2,41.59,6.57,41.13l32.07-3.25a7.56,7.56,0,0,0,5.13-3.73l13-29.5C58.62.45,61.64,0,62.85,0s4.23.45,6.08,4.65l13,29.5a7.58,7.58,0,0,0,5.13,3.73l32.08,3.25c4.56.46,5.92,3.19,6.3,4.34s.87,4.16-2.55,7.22l-24,21.48a7.51,7.51,0,0,0-2,6l6.82,31.51c.69,3.21-.23,5.21-1.13,6.33A5.65,5.65,0,0,1,98.11,120.13Z"/><path class="cls-2" d="M61.18,6.26c1.33-3,3.51-3,4.84,0l13,29.5a11.44,11.44,0,0,0,8.39,6.1l32.07,3.25c3.29.33,4,2.4,1.5,4.6l-24,21.48a11.4,11.4,0,0,0-3.2,9.86l6.82,31.5c.7,3.23-1.07,4.51-3.92,2.85L68.79,99.18a11.36,11.36,0,0,0-10.37,0L30.56,115.4c-2.85,1.66-4.61.38-3.91-2.85l6.82-31.5a11.41,11.41,0,0,0-3.21-9.86l-24-21.48c-2.46-2.2-1.79-4.27,1.49-4.6l32.07-3.25a11.43,11.43,0,0,0,8.39-6.1Z"/><path class="cls-3" d="M60.43,6.26c1.33-3,3.51-3,4.84,0l13,29.5a11.44,11.44,0,0,0,8.39,6.1l32.07,3.25c3.29.33,4,2.4,1.5,4.6l-24,21.48A11.4,11.4,0,0,0,93,81.05l6.82,31.5c.7,3.23-1.07,4.51-3.92,2.85L68,99.18a11.36,11.36,0,0,0-10.37,0L29.81,115.4c-2.85,1.66-4.61.38-3.91-2.85l6.82-31.5a11.41,11.41,0,0,0-3.21-9.86l-24-21.48C3,47.51,3.69,45.44,7,45.11L39,41.86a11.43,11.43,0,0,0,8.39-6.1Z"/><path class="cls-4" d="M118.73,45.11,86.66,41.86a11.44,11.44,0,0,1-8.39-6.1l-13-29.5c-1.33-3-3.51-3-4.84,0l-13,29.5A11.43,11.43,0,0,1,39,41.86L27.38,43A68.18,68.18,0,0,0,89.06,82.15c1.39,0,2.77-.05,4.14-.13l-.21-1a11.4,11.4,0,0,1,3.2-9.86l24-21.48C122.69,47.51,122,45.44,118.73,45.11Z"/><path class="cls-5" d="M90.71,42.27l-63.3,63.29-1.51,7c-.7,3.23,1.06,4.51,3.91,2.85L57.67,99.18a7.2,7.2,0,0,1,1.41-.63l54-54Z"/><path class="cls-6" d="M32.67,81.25,78.24,35.69,70.7,18.57,23.48,65.79l6,5.4a11.41,11.41,0,0,1,3.21,9.86Z"/></svg>